<?xml version="1.0" encoding="iso-8859-1"?>
<!-- Generator: Adobe Illustrator 19.0.0, SVG Export Plug-In . SVG Version: 6.00 Build 0)  -->
<svg xmlns="http://www.w3.org/2000/svg" xmlns:xlink="http://www.w3.org/1999/xlink" version="1.1" id="Capa_1" x="0px" y="0px" viewBox="0 0 238 238" style="enable-background:new 0 0 238 238;" xml:space="preserve" width="512px" height="512px">
<g>
	<path d="M153.074,104.384l-23.739,61.013l-21.611-30.639l-12.705,16.605l-23.964-39.619l-12.943,29.679H35.502H0v17h50.607   c23.858,24.929,57.768,51.348,59.365,52.587l3.053,2.371l3.063-2.358c1.693-1.304,41.74-32.226,64.866-58.28l7.385-8.319h-18.748   L153.074,104.384z" fill="#000000"/>
	<path d="M208.207,115.423c4.279-8.712,7.777-19.801,7.064-34.004c-0.759-15.087-6.777-29.265-16.945-39.922   c-10.385-10.884-23.966-16.878-38.243-16.878c-21.751,0-39.559,13.93-47.053,20.838c-7.277-6.965-24.597-20.818-47.213-20.818   c-14.275,0-27.857,6-38.244,16.894C17.404,52.197,11.388,66.379,10.628,81.467c-0.715,14.235,3.686,28.82,13.452,44.589   l1.467,2.367h24.149L69.119,83.84l27.099,44.752l11.915-15.513l17.919,25.438l26.683-68.66l25.425,61.566h1.174h18.9H238v-16   H208.207z" fill="#000000"/>
</g>
<g>
</g>
<g>
</g>
<g>
</g>
<g>
</g>
<g>
</g>
<g>
</g>
<g>
</g>
<g>
</g>
<g>
</g>
<g>
</g>
<g>
</g>
<g>
</g>
<g>
</g>
<g>
</g>
<g>
</g>
</svg>